<svg xmlns="http://www.w3.org/2000/svg" width="604.114" height="617" viewBox="0 0 604.114 617">
  <g id="Artificial-Intelligence-_AI_---Web" data-name="Artificial-Intelligence-(AI)---Web" transform="translate(-1032.303 -290.65)">
    <g id="Group_10783" data-name="Group 10783" transform="translate(1032.303 290.65)">
      <g id="_11" transform="translate(0 0)">
        <g id="Objects-3-3" transform="translate(0 0)">
          <g id="Robot" transform="translate(0 313.874)">
            <path id="Path_1685" d="M109.779,344.873H97.318l-3.7,1.979,3.7,2.093v7.541H110.6l3.484,1.979.512-.267a6.044,6.044,0,0,0,3.186-5.348h0a7.993,7.993,0,0,0-8-8Z" transform="translate(-22.815 -81.736)" fill="#0552ED"/>
            <path id="Path_3139" d="M93.62,347.47H106.1a8,8,0,0,1,8,8h0v3.614H96.928a3.3,3.3,0,0,1-3.3-3.3Z" transform="translate(-22.815 -82.354)" fill="#fff"/>
            <g id="Group_1431" transform="translate(71.439 191.441)">
              <path id="Path_1686" d="M4.828,73.379a1.666,1.666,0,0,1-1.7-1.62V71.72c-.13-14,3.056-24.372,9.558-30.813a23.244,23.244,0,0,1,4.584-3.545C11.032,33.619,6.333,27.2,3.437,18.376A63.353,63.353,0,0,1,.45.04L6.814.093h0c0,.306,0,30.8,20.8,34.381a3.285,3.285,0,0,1,2.789,3.1,3.178,3.178,0,0,1-3.11,3.247h-.176A14.967,14.967,0,0,0,17.052,45.53c-5.065,5.127-7.64,14.134-7.571,26.091a1.65,1.65,0,0,1-1.612,1.666Z" transform="translate(-0.45 -0.04)" fill="#fff"/>
            </g>
            <g id="Group_1432" transform="translate(0 114.848)">
              <path id="Path_1687" d="M108.624,1.948a.21.21,0,0,1,0-.053l-.306-.5H6.589c-.107.168-.214.336-.306.5v.053C1.646,17.175.232,38.185,3.036,51.854,8.209,77.066,28.15,106.1,54.707,106.1c.924,0,1.849,0,2.766-.076s1.841.076,2.773.076c26.557,0,46.5-29.033,51.663-54.245C114.675,38.178,113.261,17.159,108.624,1.948Z" transform="translate(-1.1 -0.932)" fill="#fff"/>
              <path id="Path_1688" d="M60.046,106.408c-.894,0-1.834,0-2.789-.076s-1.849.076-2.743.076c-8.611,0-21.538-3.094-34.205-17.825A83.829,83.829,0,0,1,2.393,51.811C-.411,38.166.957,17.079,5.648,1.676l.1-.176c.076-.145.183-.321.29-.489L6.175.79H108.385l.138.222.313.512.076.153c4.691,15.4,6.059,36.49,3.255,50.135A83.954,83.954,0,0,1,94.251,88.584C81.584,103.306,68.656,106.408,60.046,106.408Zm-2.789-1c.986.046,1.91.076,2.789.076,8.4,0,21.064-3.056,33.5-17.5a82.985,82.985,0,0,0,17.718-36.352c2.766-13.5,1.413-34.381-3.224-49.623l-.168-.29H6.687c-.053.1-.107.191-.168.283h0C1.881,17.278.529,38.12,3.294,51.62A82.981,82.981,0,0,0,21.012,87.972c12.438,14.463,25.083,17.5,33.5,17.5.879,0,1.8,0,2.735-.076Z" transform="translate(-0.945 -0.79)" fill="#0552ED"/>
            </g>
            <g id="Group_1433" transform="translate(0 114.856)">
              <path id="Path_1689" d="M76.524,102.279a37.7,37.7,0,0,1-16.335,3.82c-.924,0-1.849,0-2.766-.069s-1.841.069-2.766.069c-26.557,0-46.5-29.033-51.671-54.245C.183,38.185,1.6,17.175,6.234,1.948V1.894c.1-.168.2-.336.306-.5h38.2c-.107.16-.206.336-.306.5v.053C39.8,17.175,38.384,38.185,41.188,51.854,45.222,71.565,58.3,93.607,76.524,102.279Z" transform="translate(-1.088 -0.939)" fill="#0552ED"/>
              <path id="Path_1690" d="M60.046,106.411c-.932,0-1.872,0-2.789-.069s-1.818.069-2.75.069c-8.611,0-21.53-3.056-34.205-17.825A83.866,83.866,0,0,1,2.393,51.821C-.411,38.176.957,17.089,5.648,1.686L5.7,1.564l.336-.55L6.175.8H45.468l-.458.718c-.1.153-.2.321-.3.489h0c-4.63,15.28-5.99,36.115-3.217,49.615,5.241,25.564,21.393,43.587,35.084,50.1l.879.42-.879.42A38.2,38.2,0,0,1,60.046,106.411Zm-2.789-.993c.947.046,1.872.076,2.789.076a37.162,37.162,0,0,0,15.28-3.346c-8.29-4.179-15.976-11.353-22.294-20.8A85.318,85.318,0,0,1,40.609,51.821c-2.8-13.63-1.436-34.694,3.239-50.089H6.71l-.16.275h0C1.912,17.288.559,38.13,3.333,51.623a82.881,82.881,0,0,0,17.71,36.352c12.438,14.463,25.083,17.5,33.495,17.5.917,0,1.841,0,2.75-.069Z" transform="translate(-0.945 -0.8)" fill="#0552ED"/>
            </g>
            <path id="Path_1691" d="M109.946,150.306c0,4.019-22.844,7.273-51.029,7.273s-51.029-3.255-51.029-7.273a.833.833,0,0,1,0-.2,2.086,2.086,0,0,1,.963-1.222c4.653-3.339,25.289-5.845,50.043-5.845s45.39,2.514,50.043,5.845a2.041,2.041,0,0,1,.955,1.222A.565.565,0,0,1,109.946,150.306Z" transform="translate(-2.582 -34.113)"/>
            <g id="Object-3-3" transform="translate(101.953 0)">
              <path id="Path_1692" d="M20.65,60.03,91.765,79.383A38.636,38.636,0,0,1,88.4,83.569L21.643,66.142a38.464,38.464,0,0,1-.993-6.112Z" transform="translate(-5.17 -14.524)" fill="#fff" opacity="0.6"/>
              <path id="Path_1693" d="M18.9,27.715A42.518,42.518,0,1,1,43.3,82.678,42.518,42.518,0,0,1,18.9,27.715Zm6.341,2.437A35.726,35.726,0,1,0,71.418,9.646h0A35.771,35.771,0,0,0,25.233,30.152Z" transform="translate(-4.084 -0.469)"/>
              <path id="Path_1694" d="M37.659,101.688.764,189.97a6.112,6.112,0,0,0,11.269,4.706l.122-.321,31.837-90.231a3.4,3.4,0,0,0-6.341-2.437Z" transform="translate(-0.388 -23.872)"/>
            </g>
            <path id="Path_1695" d="M41.419,344.873H28.95l-3.69,1.979,3.69,2.093v7.541H42.229l3.492,1.979.512-.267a6.044,6.044,0,0,0,3.186-5.348h0a8,8,0,0,0-8-8Z" transform="translate(-6.683 -81.736)" fill="#0552ED"/>
            <path id="Path_3138" d="M25.241,347.47H37.709a8,8,0,0,1,8,8h0v3.614H28.9a3.7,3.7,0,0,1-3.69-3.683Z" transform="translate(-6.671 -82.354)" fill="#fff"/>
            <g id="Group_1435" transform="translate(19.328 191.51)">
              <path id="Path_1696" d="M4.282,73.4A1.445,1.445,0,0,1,2.8,72h0c-.176-14.134,3.056-24.586,9.558-31.065a22.685,22.685,0,0,1,4.584-3.545C10.708,33.648,6,27.23,3.113,18.405A64.238,64.238,0,0,1,.248,3.362,3.056,3.056,0,0,1,3.06.13h.55a3.056,3.056,0,0,1,3,2.8c.558,7.64,3.652,28.658,20.629,31.585a3.278,3.278,0,0,1,2.8,3.056,3.178,3.178,0,0,1-3.11,3.247h-.176A14.967,14.967,0,0,0,16.69,45.528c-5.1,5.165-7.7,14.241-7.571,26.313a1.436,1.436,0,0,1-1.4,1.444Z" transform="translate(-0.243 -0.13)" fill="#fff"/>
            </g>
            <g id="Group_1436" transform="translate(11.083 127.969)">
              <path id="Path_1697" d="M13.373,7.9a6.051,6.051,0,1,0,2.078,11.712c-2.407-1.421-3.82-2.414-3.95-2.529a3.186,3.186,0,1,1,3.744-5.149h0s1.528,1.077,4.149,2.6v-.588A6.051,6.051,0,0,0,13.373,7.9Z" transform="translate(-2.059 -2.6)" fill="none" fill-rule="evenodd"/>
              <path id="Path_1698" d="M115.521,9.725a3.186,3.186,0,0,0-4.47-.535h0c-18.978,14.929-40.1,19.987-62.787,15.036A88.551,88.551,0,0,1,28.346,17.22a11.293,11.293,0,0,1-3.476,5.4,94.674,94.674,0,0,0,21.782,7.762A83.38,83.38,0,0,0,64.538,32.37c14.891,0,32.662-4.187,50.425-18.176A3.186,3.186,0,0,0,115.521,9.725Z" transform="translate(-6.214 -2.745)" fill="#0552ED"/>
              <path id="Path_1699" d="M11.766,18.35a6.043,6.043,0,1,1,6.043-6.043,4.844,4.844,0,0,1,0,.581c1.322.764,2.934,1.635,4.806,2.552a11.308,11.308,0,1,0-3.476,5.4c-2.086-1.047-3.82-2.025-5.264-2.865a5.845,5.845,0,0,1-2.109.374Z" transform="translate(-0.452 -0.964)" fill="#0552ED"/>
              <path id="Path_1700" d="M26.72,19.122c-1.872-.917-3.484-1.8-4.8-2.552a6.036,6.036,0,0,1-3.942,5.088c1.413.84,3.178,1.818,5.264,2.865A11.293,11.293,0,0,0,26.72,19.122Z" transform="translate(-4.588 -4.646)" fill="#0552ED"/>
            </g>
            <path id="Path_3137" d="M154.882,166.976,162.9,174a4.332,4.332,0,0,1,.413,6.112h0a4.339,4.339,0,0,1-6.112.4h0l-8.022-7.021a4.324,4.324,0,0,1-.4-6.112h0a4.324,4.324,0,0,1,6.112-.413Z" transform="translate(-35.577 -39.507)" fill="#0552ED"/>
            <g id="Group_1438" transform="translate(10.272 54.439)">
              <path id="Path_1701" d="M6.609,6.054,57.133.759C61.847.27,82.476,4.877,82.972,9.583l2.292,21.545c.5,4.714-1.773,8.809-6.487,9.306L12.713,47.349a8.58,8.58,0,0,1-9.42-7.64h0L1,18.163C.5,13.457,1.895,6.543,6.609,6.054Z" transform="translate(-0.512 -0.723)" fill="#0552ED"/>
              <path id="Path_1702" d="M7.839,7.69l20.629,4.874,3.171,42.2L9.428,48.886a6.815,6.815,0,0,1-6.112-6.066L.428,15.177A6.807,6.807,0,0,1,6.495,7.69,6.876,6.876,0,0,1,7.839,7.69Z" transform="translate(-0.39 -2.359)" fill="#0552ED"/>
              <g id="Group_1437" transform="translate(20.914 4.708)">
                <path id="Path_3136" d="M8.031,6.526,55.76,1.537a7.434,7.434,0,0,1,8.167,6.616h0l2.8,26.687A7.449,7.449,0,0,1,60.1,43.008h0l-47.728,5A7.434,7.434,0,0,1,4.2,41.381h0L1.407,14.7A7.442,7.442,0,0,1,8.031,6.526Z" transform="translate(-0.906 -1.029)" fill="#fff"/>
                <path id="Path_1703" d="M11.442,48.365A7.9,7.9,0,0,1,3.6,41.29L.807,14.6A7.908,7.908,0,0,1,7.843,5.924l47.721-5a7.915,7.915,0,0,1,8.679,7.037l2.8,26.68A7.908,7.908,0,0,1,60,43.323l-47.721,5A7.74,7.74,0,0,1,11.442,48.365ZM7.935,6.848a6.968,6.968,0,0,0-6.2,7.64L4.52,41.168a6.983,6.983,0,0,0,7.64,6.211l47.728-5a6.975,6.975,0,0,0,6.2-7.64h0L63.3,8.063a6.975,6.975,0,0,0-7.64-6.211Z" transform="translate(-0.764 -0.885)" fill="#0552ED"/>
              </g>
              <path id="Path_1704" d="M95.578,25.673A11.277,11.277,0,0,0,83.2,15.641L55.8,18.506a11.269,11.269,0,1,0,2.177,22.432h.168L85.569,38.08A11.285,11.285,0,0,0,95.578,25.673ZM57.6,35.727a6.051,6.051,0,1,1,5.348-6.647A6.051,6.051,0,0,1,57.6,35.727ZM85,32.855a6.043,6.043,0,1,1,5.348-6.647A6.043,6.043,0,0,1,85,32.855Z" transform="translate(-11.032 -4.229)" fill="#0552ED"/>
            </g>
          </g>
          <g id="Plant-3-3" transform="translate(502.996 373.14)">
            <g id="Group_1443" transform="translate(0 0)">
              <g id="Group_1440" transform="translate(25.826)">
                <path id="Path_1705" d="M26.215,56.792S-6.462,42.352,2.126.82C2.133.82,38.585,12.234,26.215,56.792Z" transform="translate(-0.241 -0.224)" fill="#0552ED"/>
                <path id="Path_1706" d="M26.375,57.242l-.489-.214A46.605,46.605,0,0,1,10.453,44.483C3.913,36.377-2.94,22.166,1.537.537l.1-.5.489.153A42.785,42.785,0,0,1,19.018,11.6c12.645,14.081,11.063,32.318,7.5,45.131ZM2.339,1.24C-1.848,22.2,4.8,35.98,11.141,43.864A46.72,46.72,0,0,0,25.772,55.943c3.392-12.56,4.752-30.148-7.442-43.725A42.166,42.166,0,0,0,2.339,1.247Z" transform="translate(-0.103 -0.04)" fill="#0552ED"/>
              </g>
              <g id="Group_1441" transform="translate(64.467 12.797)">
                <path id="Path_1707" d="M4.349,55.06S-9.571,24.025,21.8,1.67C21.8,1.67,40.2,33.125,4.349,55.06Z" transform="translate(-0.819 -0.998)" fill="#0552ED"/>
                <path id="Path_1708" d="M4,55.517l-.222-.474A45.245,45.245,0,0,1,.726,36.523c.4-9.734,4.324-23.784,20.682-35.435l.4-.3.26.435a41.89,41.89,0,0,1,4.783,18.7c.2,17.748-12.064,29.033-22.393,35.321ZM21.5,2.142C5.806,13.519,2.024,27.118,1.635,36.561A45.222,45.222,0,0,0,4.423,54.172c14.2-8.84,21.622-20.629,21.492-34.2A41.372,41.372,0,0,0,21.5,2.142Z" transform="translate(-0.679 -0.79)" fill="#0552ED"/>
              </g>
              <g id="Group_1442" transform="translate(0 45.46)">
                <path id="Path_1709" d="M45.612,35.827S11.72,38.631,1.07,1.606C1.07,1.606,36.887-5.278,45.612,35.827Z" transform="translate(-0.482 -0.69)" fill="#0552ED"/>
                <path id="Path_1710" d="M43.872,36.182a46.873,46.873,0,0,1-16.892-3.3C17.941,29.26,5.992,20.894.438,1.556L.3,1.067.8.976a41.784,41.784,0,0,1,19.23,1.711C36.835,8.4,43.36,23.713,45.881,35.54l.115.512-.527.046A12.657,12.657,0,0,1,43.872,36.182ZM1.477,1.8C6.985,20.367,18.53,28.458,27.285,31.972a45.222,45.222,0,0,0,17.572,3.239C42.306,23.69,35.865,9.051,19.721,3.558A41.387,41.387,0,0,0,1.477,1.831Z" transform="translate(-0.3 -0.541)" fill="#0552ED"/>
              </g>
              <path id="Path_1711" d="M70.425,149.809l-.9-.214c.038-.13,3.14-13.829,1.933-36.23-1.1-20.674-6.2-53.2-24.2-90.75l.84-.4c18.069,37.712,23.18,70.382,24.288,91.148C73.588,135.911,70.463,149.664,70.425,149.809Z" transform="translate(-11.382 -5.272)"/>
              <path id="Path_1712" d="M67.4,111.239l-.764-.993c-.2-.26-19.727-26.252-37.024-35.817l.443-.81c9.168,5.05,18.8,14.593,25.3,21.713,5.463,5.982,9.665,11.308,11.292,13.4C68.59,89.587,84.7,53.334,84.864,52.96l.848.382C85.544,53.716,68.8,91.375,67.467,110Z" transform="translate(-7.217 -12.528)"/>
            </g>
            <g id="Group_1444" transform="translate(18.642 117.988)">
              <path id="Path_1713" d="M76.915,83.5H7.5L1.72,1.38H82.706Z" transform="translate(-0.941 -0.685)"/>
              <path id="Path_1714" d="M77.293,83.977H6.583L.7.47H83.176ZM7.882,82.595H75.994L81.686,1.861H2.22Z" transform="translate(-0.7 -0.47)"/>
            </g>
          </g>
          <g id="Object-2-4" transform="translate(24.463)">
            <g id="Objects-2-4" transform="translate(0)">
              <path id="Path_1715" d="M429.035,169.466a9.008,9.008,0,1,0-8.954-9.932l-115,37.582v7.64L422.3,166.409A8.975,8.975,0,0,0,429.035,169.466Z" transform="translate(-72.729 -36.236)" fill="#0552ED"/>
              <path id="Path_1716" d="M185.058,40.24a9.016,9.016,0,0,0-9.008,9.008h0c0,3.392,2.453,6.341,5.218,7.877v61.236h7.587V57.125c2.766-1.528,5.211-4.485,5.211-7.877A9.008,9.008,0,0,0,185.058,40.24Z" transform="translate(-42.281 -9.992)" fill="#0552ED"/>
              <path id="Path_1717" d="M235.168.65a9.008,9.008,0,0,0-9.008,9.008h0c0,3.392,2.453,6.334,5.211,7.869v72.91h7.587v-72.9c2.766-1.528,5.218-4.485,5.218-7.869a9.016,9.016,0,0,0-9-9.015Z" transform="translate(-54.106 -0.65)" fill="#0552ED"/>
              <path id="Path_1718" d="M285.168,10.93a9.008,9.008,0,0,0-9.008,9.008c0,3.385,2.453,6.334,5.218,7.869V89.043h7.61V27.815c2.758-1.528,5.211-4.485,5.211-7.869a9.007,9.007,0,0,0-9.031-9.015Z" transform="translate(-65.905 -3.076)" fill="#0552ED"/>
              <path id="Path_1719" d="M429.035,207.456a9,9,0,0,0-8.847,7.365L305.08,252.434v7.64l116.8-38.2a9.008,9.008,0,1,0,7.159-14.463Z" transform="translate(-72.729 -49.441)" fill="#0552ED"/>
              <path id="Path_1720" d="M9.984,285a9.008,9.008,0,1,0,8.886,10.414L133.358,257.98v-7.64L17,288.373A9.007,9.007,0,0,0,9.984,285Z" transform="translate(-0.964 -59.572)" fill="#0552ED"/>
              <path id="Path_1721" d="M9.985,340.808a9.008,9.008,0,1,0,8.97,9.726l114.4-37.383v-7.64l-116.8,38.2A8.97,8.97,0,0,0,9.985,340.808Z" transform="translate(-0.965 -72.591)" fill="#0552ED"/>
            </g>
            <g id="Object-3-4" transform="translate(120.246 63.284)">
              <path id="Path_1722" d="M124.915,1.32V39.865L.96,80.358V41.821Z" transform="translate(-0.494 -0.678)" fill="#fff"/>
              <path id="Path_1723" d="M.35,80.817V41.286L125.237.48V40Zm.932-38.858V79.533l123.007-40.2V1.756Z" transform="translate(-0.35 -0.48)" fill="#0552ED"/>
            </g>
            <g id="Object-4-3" transform="translate(120.246 125.422)">
              <path id="Path_1724" d="M124.915,1.65V144.713L.96,185.206V42.158Z" transform="translate(-0.494 -1.008)" fill="#fff"/>
              <path id="Path_1725" d="M.35,185.657V41.624L125.237.81V144.843ZM1.282,42.3V184.4l123.007-40.21V2.086Z" transform="translate(-0.35 -0.81)" fill="#0552ED"/>
            </g>
          </g>
        </g>
        <g id="Male-3-3" transform="translate(227.279 242.154)">
          <g id="Group_1451" transform="translate(90.978 0)">
            <g id="Group_1449" transform="translate(29.697)">
              <path id="Path_1726" d="M65.685,1.263H93.641c31.814-1.7,69.32,36.329,61.427,75.172l-26.16,128.692H.95L4.228,51.459a62.65,62.65,0,0,1,61.458-50.2Z" transform="translate(-0.507 -0.742)" fill="#fff"/>
              <path id="Path_1727" d="M129.169,205.449H.37l3.3-154.225A63.146,63.146,0,0,1,65.556.653H93.5c15.624-.84,33.365,7.946,46.277,22.921,13.546,15.708,19.238,34.962,15.609,52.817ZM1.325,204.524H128.4L154.488,76.169c3.568-17.572-2.048-36.535-15.4-52.022C126.357,9.393,108.907.737,93.535,1.554H65.564A62.214,62.214,0,0,0,4.6,51.346Z" transform="translate(-0.37 -0.598)" fill="#0552ED"/>
            </g>
            <g id="Group_1450" transform="translate(0 0.042)">
              <path id="Path_1728" d="M93.91,1.28h0a62.7,62.7,0,0,1,61.427,75.172l-26.16,128.692H1.25L32.483,51.514A62.65,62.65,0,0,1,93.91,1.28Z" transform="translate(-0.677 -0.8)" fill="#0552ED"/>
              <path id="Path_1729" d="M129.383,205.461H.5L31.825,51.236A63.151,63.151,0,0,1,155.6,76.4ZM1.638,204.537H128.626L154.71,76.182A62.252,62.252,0,0,0,93.733,1.56h0A62.23,62.23,0,0,0,32.757,51.389Z" transform="translate(-0.5 -0.652)" fill="#0552ED"/>
            </g>
          </g>
          <g id="Group_1452" transform="translate(49.3 206.96)">
            <path id="Path_1730" d="M73.559,142.153,1.55,114.893V1.13L73.559,6.088Z" transform="translate(-1.092 -0.633)" fill="#0552ED"/>
            <path id="Path_1731" d="M73.876,142.672.95,115.045V.48L73.883,5.5Zm-72-28.269,71.054,26.924V6.363L1.874,1.473Z" transform="translate(-0.95 -0.48)" fill="#0552ED"/>
          </g>
          <g id="Male-2-4" transform="translate(0 18.166)">
            <g id="hand-right-3-3" transform="translate(76.14 55.707)">
              <g id="Group_1453" transform="translate(25.38 0)">
                <path id="Path_3135" d="M19,1.13A17.794,17.794,0,1,1,1.21,18.924,17.794,17.794,0,0,1,19,1.13Z" transform="translate(-0.514 -0.486)"/>
                <path id="Path_1732" d="M18.751,37.222A18.5,18.5,0,0,1,3.241,8.717h0a18.466,18.466,0,1,1,15.51,28.506ZM3.853,9.091l.581.382A17.1,17.1,0,1,0,15.191,2.016,17.1,17.1,0,0,0,4.433,9.473Z" transform="translate(-0.3 -0.287)"/>
              </g>
              <g id="Group_1454" transform="translate(0 7.291)">
                <path id="sleave-3-2" d="M31.249,65.313,1.33,46.044,29.645,2.09,59.564,21.351Z" transform="translate(-0.375 -1.127)"/>
                <path id="Path_1733" d="M31.16,65.978.08,45.961,29.113.83,60.2,20.847ZM2,45.54l28.75,18.512L58.306,21.268,29.556,2.755Z" transform="translate(-0.08 -0.83)"/>
              </g>
            </g>
            <g id="legs-3-3" transform="translate(0 142.704)">
              <g id="shoes-3-3" transform="translate(0 111.397)">
                <g id="Group_1456" transform="translate(34.264 0)">
                  <path id="Path_1734" d="M37.309,18.971,37.493,53.6A18.337,18.337,0,0,1,21.364,71.871h0A18.336,18.336,0,0,1,.888,53.2l.947-34.618A17.748,17.748,0,0,1,17.46,1.452h0A17.771,17.771,0,0,1,37.324,18.971Z" transform="translate(-0.415 -1.046)" fill="#fff"/>
                  <path id="Path_1735" d="M19.034,72.38A18.772,18.772,0,0,1,.27,53.6v-.5l.947-34.618a18.207,18.207,0,0,1,36.4.4l.191,34.633A18.788,18.788,0,0,1,19.118,72.38ZM19.416,1.7A17.282,17.282,0,0,0,2.149,18.509L1.2,53.127a17.843,17.843,0,0,0,35.672,1.024v-.626l-.183-34.633A17.282,17.282,0,0,0,19.409,1.709Z" transform="translate(-0.27 -0.959)"/>
                </g>
                <g id="Group_1457" transform="translate(0 45.628)">
                  <path id="Path_1736" d="M72.409,3.512,72,24.706a2.613,2.613,0,0,1-2.6,2.338H3.953A2.628,2.628,0,0,1,1.34,24.415v-.3A25.427,25.427,0,0,1,26.606,1.64h9.008A41.165,41.165,0,0,0,70.866,2.4h0a1.093,1.093,0,0,1,1.444.565A1.031,1.031,0,0,1,72.409,3.512Z" transform="translate(-0.639 -0.907)"/>
                  <path id="Path_1737" d="M69.182,27.512h0L3.736,27.467A3.316,3.316,0,0,1,.428,24.151a3.2,3.2,0,0,1,0-.382A26.084,26.084,0,0,1,26.367.68h9.168l.145.069a40.692,40.692,0,0,0,34.664.764,1.788,1.788,0,0,1,2.361.909,1.742,1.742,0,0,1,.145.879l-.42,21.232A3.3,3.3,0,0,1,69.182,27.512ZM26.4,2.071A24.7,24.7,0,0,0,1.834,23.929a1.956,1.956,0,0,0,.481,1.528,1.926,1.926,0,0,0,1.429.642l65.446.038h0a1.918,1.918,0,0,0,1.9-1.688l.42-21.224a.4.4,0,0,0-.359-.435.351.351,0,0,0-.2,0,42.067,42.067,0,0,1-35.7-.764H26.4Z" transform="translate(-0.423 -0.68)"/>
                </g>
              </g>
              <path id="Path_1738" d="M35.208,27.981h0a24.3,24.3,0,0,0,48.4-1.368h0a23.684,23.684,0,0,0-.252-5.2h0a24.3,24.3,0,0,0-48.133.764h0a23.941,23.941,0,0,0-.015,5.807Z" transform="translate(-8.591 -0.32)" fill="#0552ED"/>
              <path id="Path_1739" d="M169.225,26.082h0A22.409,22.409,0,0,0,148.047,5.209L63.936.7A24.907,24.907,0,0,0,34.444,30.5l-.359,110.783,55.208.458L84.916,49.8l61.779.206a22.409,22.409,0,0,0,22.584-22.225C169.279,27.205,169.263,26.647,169.225,26.082Z" transform="translate(-8.309 -0.155)"/>
            </g>
            <g id="legs-2-4" transform="translate(60.972 147.712)">
              <path id="Path_3134" d="M106.936,29.52h0A27.963,27.963,0,0,1,134.9,57.483V190.109H78.95V57.483A27.963,27.963,0,0,1,106.936,29.52Z" transform="translate(-18.803 -7.509)" fill="#0552ED"/>
              <g id="shoes-2-4" transform="translate(0 134)">
                <g id="Group_1459" transform="translate(27.998 0)">
                  <path id="Path_1740" d="M36.725,15.628l5.99,34.114A18.336,18.336,0,0,1,29.88,70.462h0A18.336,18.336,0,0,1,7.135,58.1a19.317,19.317,0,0,1-.573-2.621L1.7,21.19A17.741,17.741,0,0,1,14.225,1.684h0A17.748,17.748,0,0,1,36.267,13.672,17.3,17.3,0,0,1,36.725,15.628Z" transform="translate(-1.024 -0.301)" fill="#fff"/>
                  <path id="Path_1741" d="M24.525,71.474A18.764,18.764,0,0,1,5.951,55.346L1.084,21.057A18.2,18.2,0,0,1,37.032,15.35l5.99,34.114a18.772,18.772,0,0,1-15.28,21.729,18.433,18.433,0,0,1-3.239.283ZM19.1,1.223A17.252,17.252,0,0,0,2,20.927L6.868,55.216A17.842,17.842,0,1,0,42.2,50.2a3.158,3.158,0,0,0-.092-.581L36.115,15.51A17.267,17.267,0,0,0,19.1,1.223Z" transform="translate(-0.872 -0.099)"/>
                </g>
                <g id="Group_1460" transform="translate(0 44.87)">
                  <path id="Path_1742" d="M70.832,2.886l2.712,21.179a2.628,2.628,0,0,1-2.46,2.491L3.9,30.436a2.613,2.613,0,0,1-2.766-2.46,1.94,1.94,0,0,1,0-.3A25.419,25.419,0,0,1,25.006,3.726L34,3.184A41.181,41.181,0,0,0,69.235,1.862h0a1.093,1.093,0,0,1,1.475.466A1.07,1.07,0,0,1,70.832,2.886Z" transform="translate(-0.44 -1.043)"/>
                  <path id="Path_1743" d="M3.537,30.924A3.316,3.316,0,0,1,.229,27.6a1.291,1.291,0,0,1,0-.176A26.076,26.076,0,0,1,24.746,2.816l9.168-.55.153.069A40.676,40.676,0,0,0,68.716,1.028a1.8,1.8,0,0,1,2.414.764,1.888,1.888,0,0,1,.2.84l2.7,21.186v.061a3.3,3.3,0,0,1-3.11,3.148L3.744,30.917ZM33.67,3.672,24.838,4.2A24.693,24.693,0,0,0,1.62,27.5a1.925,1.925,0,0,0,2.032,2.032l67.18-3.889a1.925,1.925,0,0,0,1.8-1.773L69.923,2.694V2.633a.4.4,0,0,0-.382-.413.443.443,0,0,0-.2.046A42.021,42.021,0,0,1,33.67,3.672Z" transform="translate(-0.226 -0.828)"/>
                </g>
              </g>
              <path id="Path_1744" d="M3.519,65.146h0a24.311,24.311,0,0,0,47.492-9.451h0A23.683,23.683,0,0,0,49.9,50.606h0A24.3,24.3,0,0,0,2.572,59.438h0a24.364,24.364,0,0,0,.947,5.707Z" transform="translate(-0.774 -8.57)" fill="#0552ED"/>
              <g id="Group_1461" transform="translate(0.856 0)">
                <path id="Path_1745" d="M139.932,15.911h0c-4.21-10.536-14.746-16.61-24.54-14.15L24.244,25.844a24.74,24.74,0,0,0-9.818,2.682,20.209,20.209,0,0,0-6.112,4.424A24.815,24.815,0,0,0,.972,51.713h0l.97,5.807h0l18.65,111.845,54.505-8.8L54.652,67.544l73.69-22.921C139.443,41.223,144.776,28.013,139.932,15.911Z" transform="translate(-0.488 -0.83)"/>
                <path id="Path_1746" d="M20.068,169.8.372,51.663h0a25.251,25.251,0,0,1,7.472-19.1,20.323,20.323,0,0,1,6.265-4.508,24.876,24.876,0,0,1,9.932-2.72l91.1-24.067c10-2.514,20.774,3.683,25.06,14.4a23.94,23.94,0,0,1-.367,19.192,18.826,18.826,0,0,1-11.46,10.085L55.03,67.776l20.43,93.1ZM2.206,57.332v.046L20.779,168.795,74.4,160.138,54,67.149l.382-.115,73.69-22.921a17.954,17.954,0,0,0,10.964-9.627A23.064,23.064,0,0,0,139.378,16C135.252,5.676,124.915-.291,115.342,2.116L24.171,26.167h-.046A24.119,24.119,0,0,0,14.491,28.8a19.566,19.566,0,0,0-6.02,4.332,24.38,24.38,0,0,0-7.228,18.4v.076Z" transform="translate(-0.346 -0.711)" fill="#fff"/>
              </g>
            </g>
            <g id="body-3-2" transform="translate(106.35 55.783)">
              <g id="Group_1462" transform="translate(0 0)">
                <path id="Path_1747" d="M93.591,52.626,16.356,36.94C7.952,35.236,1.19,26.03,1.19,16.373v-.665c0-9.657,6.792-16.1,15.166-14.4l77.235,15.7c8.4,1.7,15.166,10.91,15.166,20.567v.665C108.734,47.873,101.964,54.322,93.591,52.626Z" transform="translate(-0.755 -0.541)" fill="#fff"/>
                <path id="Path_1748" d="M96.1,53.207a14.36,14.36,0,0,1-2.735-.283l-77.212-15.7C7.588,35.481.62,26.053.62,16.2V15.54C.62,10.4,2.545,5.875,5.907,3.125A12.293,12.293,0,0,1,16.336.688l77.235,15.7c8.565,1.742,15.533,11.17,15.533,21.018v.665c0,5.142-1.925,9.665-5.287,12.415A12.058,12.058,0,0,1,96.1,53.207ZM13.585,1.336A11.089,11.089,0,0,0,6.465,3.843c-3.14,2.575-4.943,6.83-4.943,11.7V16.2c0,9.436,6.632,18.451,14.791,20.109l77.235,15.7a11.361,11.361,0,0,0,9.657-2.246c3.148-2.567,4.951-6.83,4.951-11.7v-.665c0-9.428-6.639-18.451-14.791-20.109L16.153,1.6a12.424,12.424,0,0,0-2.544-.26Z" transform="translate(-0.62 -0.388)"/>
              </g>
              <g id="Group_1463" transform="translate(0.313 18.139)">
                <path id="Path_1749" d="M107.887,22.647,92.7,83.6,15.532,67.915.84.88Z" transform="translate(-0.221 -0.307)" fill="#fff"/>
                <path id="Path_1750" d="M92.866,83.966,14.936,68.128.03.13l108.231,22ZM15.7,67.341l76.44,15.54,14.967-60.052L1.222,1.3Z" transform="translate(-0.03 -0.13)"/>
              </g>
            </g>
            <g id="head-3-3" transform="translate(106.807 0)">
              <g id="Group_1464" transform="translate(35.101 50.124)">
                <path id="Rectangle_207" d="M1,11.008,14.806,1.84h0l7.105,10.7A8.29,8.29,0,0,1,19.619,24h0A8.282,8.282,0,0,1,8.159,21.7l-7.113-10.7Z" transform="translate(-0.358 -1.183)" fill="#fff"/>
                <path id="Path_1751" d="M14.822,25.643a8.756,8.756,0,0,1-7.3-3.9L.16,10.675,14.738.98,22.1,12.043a8.756,8.756,0,0,1-2.437,12.14h0A8.687,8.687,0,0,1,14.822,25.643ZM1.444,10.95,8.32,21.242a7.839,7.839,0,0,0,10.849,2.185h0a7.824,7.824,0,0,0,2.177-10.849L14.47,2.279Z" transform="translate(-0.16 -0.98)"/>
              </g>
              <g id="Group_1468" transform="translate(0)">
                <g id="Group_1465" transform="translate(15.362 16.77)">
                  <path id="Rectangle_208" d="M17.278,2.127h0A17.863,17.863,0,0,1,36.7,18.286l.978,10.7A17.855,17.855,0,0,1,21.526,48.4h0A17.863,17.863,0,0,1,2.1,32.245l-.978-10.7A17.863,17.863,0,0,1,17.278,2.127Z" transform="translate(-0.496 -0.732)" fill="#fff"/>
                  <path id="Path_1752" d="M19.7,48.516A18.336,18.336,0,0,1,1.475,31.86L.5,21.164a18.336,18.336,0,1,1,36.474-3.5,1.041,1.041,0,0,1,0,.153l.986,10.7A18.336,18.336,0,0,1,21.378,48.439C20.827,48.485,20.262,48.516,19.7,48.516ZM18.749,2.109a11.391,11.391,0,0,0-1.6.076A17.42,17.42,0,0,0,1.406,21.095l.986,10.7A17.4,17.4,0,0,0,37.055,28.8a1.47,1.47,0,0,0,0-.183l-.978-10.7A17.42,17.42,0,0,0,18.772,2.117Z" transform="translate(-0.325 -0.325)"/>
                </g>
                <path id="Path_1753" d="M57.41,6.728q-.688.183-1.352.413A22.414,22.414,0,0,0,52.88,4.428C44.392-1.577,33.542-.821,28.645,6.109s-3.881,22.982,6.5,23.41c9.237.374,9.833,8.259,12.988,8.74,3.239,11.285,9.6,5.86,10.521,10.215,1.169,5.623,17.122-9.115,14.807-27.214C72.813,16.041,67.656,4.1,57.41,6.728Z" transform="translate(-6.258 -0.375)"/>
                <path id="Rectangle_209" d="M7.531,12.714,25.562,3.629A5.761,5.761,0,0,1,33.3,6.181h0l9.375,18.6h0L19.5,36.459A13.3,13.3,0,0,1,1.641,30.569h0A13.3,13.3,0,0,1,7.531,12.714Z" transform="translate(-0.218 -0.997)"/>
                <g id="Group_1467" transform="translate(39.359 31.778)">
                  <g id="Group_1466" transform="translate(0 0)">
                    <path id="Rectangle_210" d="M8.351,4.694l.443,4.9a3.507,3.507,0,0,1-3.178,3.82h0A3.515,3.515,0,0,1,1.8,10.233l-.451-4.9a3.514,3.514,0,0,1,3.178-3.82h0A3.514,3.514,0,0,1,8.351,4.694Z" transform="translate(-0.875 -1.094)" fill="#fff"/>
                    <path id="Path_1754" d="M5.155,13.767A3.988,3.988,0,0,1,1.2,10.153l-.451-4.9a3.981,3.981,0,0,1,7.923-.764h0L9.12,9.4a3.988,3.988,0,0,1-3.6,4.324ZM4.712,1.841a1.8,1.8,0,0,0-.283,0A3.056,3.056,0,0,0,1.671,5.156l.451,4.9A3.069,3.069,0,0,0,8.234,9.5L7.783,4.6A3.056,3.056,0,0,0,4.727,1.825Z" transform="translate(-0.734 -0.969)"/>
                  </g>
                </g>
              </g>
            </g>
            <g id="hand-right-2-4" transform="translate(0.495 65.289)">
              <g id="Group_1469" transform="translate(0 0)">
                <path id="Path_1755" d="M131.005,90.226l-102.2-18L1.03,1.63l102.2,18.016Z" transform="translate(-0.297 -1.019)" fill="#fff"/>
                <path id="Path_1756" d="M131.512,90.641,28.247,72.434.07.83,103.335,19.037ZM28.919,71.609,130.045,89.441,102.663,19.862,1.506,2.03Z" transform="translate(-0.07 -0.83)"/>
              </g>
              <g id="Group_1470" transform="translate(81.249 44.98)">
                <path id="Path_1757" d="M104.555,23.972A17.786,17.786,0,0,0,86.265,7.393h0L35.923,10.8,24.051,2.19a4.363,4.363,0,0,0-6.112.963h0a4.363,4.363,0,0,0,.97,6.112l6.418,4.661a17.892,17.892,0,0,0-4.141,3.889l-.267.367-14.9-.764a4.364,4.364,0,1,0-.435,8.717h0l12.01.6c-.038.39-.069.764-.084,1.177l-12.836,2.7a4.37,4.37,0,1,0,1.8,8.549l12.836-2.7c.191.4.4.764.626,1.177l-10.8,5.394a4.37,4.37,0,1,0,3.9,7.816L26.5,44.119a17.733,17.733,0,0,0,9.986,2.292h0l52.167-3.53h0A17.787,17.787,0,0,0,104.555,23.972Z" transform="translate(-0.568 -0.855)" fill="#fff"/>
                <path id="Path_1758" d="M10.962,51.615a4.829,4.829,0,0,1-2.17-9.169l10.36-5.18c-.084-.145-.16-.3-.244-.451L6.432,39.444a4.836,4.836,0,1,1-1.986-9.459l12.484-2.621v-.359L5.4,26.425a4.829,4.829,0,1,1,.344-9.65h.138l14.646.726.13-.168a18.292,18.292,0,0,1,3.713-3.614l-5.9-4.279a4.83,4.83,0,0,1,5.677-7.816l11.728,8.519,50.632-3.43v.038h.138A18.252,18.252,0,0,1,88.938,43.1h0l-.458.046L35.846,46.718h0a18.184,18.184,0,0,1-9.566-2.246L13.048,51.1a4.9,4.9,0,0,1-2.086.52ZM19.42,35.785l.16.321c.183.382.39.764.611,1.138l.252.428L9.2,43.295A3.9,3.9,0,0,0,12.7,50.278h0L26.373,43.4l.214.122a17.175,17.175,0,0,0,9.726,2.223h.458l51.472-3.484h.214A17.328,17.328,0,0,0,86.119,7.714h-.443L35.632,11.107l-12-8.717a3.9,3.9,0,0,0-4.584,6.318L26,13.758l-.55.367a17.251,17.251,0,0,0-4.026,3.82l-.176.229-.237.329L5.866,17.738a3.9,3.9,0,1,0-.39,7.793h0l12.492.626-.046.489c-.038.344-.069.764-.084,1.146v.367L4.651,30.925a3.9,3.9,0,0,0,1.6,7.64Z" transform="translate(-0.415 -0.703)"/>
              </g>
              <g id="Group_1471" transform="translate(55.03 35.686)">
                <path id="Path_3133" d="M2.963,2.973C6.172.039,11.612.757,15.119,4.585s3.744,9.313.535,12.224S7,19.017,3.5,15.2-.246,5.914,2.963,2.973Z" transform="translate(-0.24 -0.687)" fill="#0552ED"/>
                <path id="Path_1759" d="M10.681,18.96a9.326,9.326,0,0,1-1.6-.145A11.193,11.193,0,0,1,.1,8.241,7.571,7.571,0,0,1,2.735,2.289,7.808,7.808,0,0,1,9.244.7a11.2,11.2,0,0,1,8.985,10.574,7.4,7.4,0,0,1-7.113,7.64ZM7.625,1.479A6.479,6.479,0,0,0,.993,7.8v.443a10.253,10.253,0,0,0,8.221,9.665,6.876,6.876,0,0,0,5.753-1.391,6.708,6.708,0,0,0,2.292-5.241A10.245,10.245,0,0,0,9.038,1.609,8.229,8.229,0,0,0,7.625,1.479Z" transform="translate(-0.096 -0.538)" fill="#0552ED"/>
              </g>
              <g id="Group_1472" transform="translate(155.631 6.762)">
                <path id="Path_1760" d="M50.847,4.466A17.794,17.794,0,0,0,26.628,9.248h0L1.95,46.739l30.37,28.8L56.524,28.5h0A17.786,17.786,0,0,0,50.847,4.466Z" transform="translate(-1.048 -0.905)"/>
                <path id="Path_1761" d="M32.232,76.463.77,46.613,26.12,8.053h.038A18.482,18.482,0,0,1,56.941,28.391l-.084.176ZM2.565,46.407,31.843,74.179,55.336,28.521h0l.329-.581a17.091,17.091,0,0,0-28.72-18.5l-.351.5Z" transform="translate(-0.77 -0.68)"/>
              </g>
            </g>
          </g>
          <g id="Group_1475" transform="translate(121.118 163.617)">
            <g id="Group_1473" transform="translate(55.491 25.847)">
              <path id="Path_1762" d="M1.18,159.789l72.009-44.634V1.4L1.18,23.717Z" transform="translate(-0.722 -0.774)" fill="#fff"/>
              <path id="Path_1763" d="M.58,160.428V23.187L73.513.58v114.6ZM1.5,23.867v134.9L72.558,114.7V1.833Z" transform="translate(-0.58 -0.58)" fill="#0552ED"/>
            </g>
            <g id="Group_1474" transform="translate(4.805 0)">
              <path id="Path_1764" d="M117.131,43.115l-65.6,21.393-20.881,6.8-4.164,1.345a18.192,18.192,0,0,1-7.3-.13C7.853,70.024-.306,57.654.969,44.9c.848-8.481,5.654-15.005,12.11-17.687l4.706-1.222,2.292-.626L105.2,1.827a15.867,15.867,0,0,1,4.065-.527c7.724,0,15.28,5.532,18.55,14.165C132.266,27.154,127.354,39.883,117.131,43.115Z" transform="translate(-0.38 -0.88)" fill="#fff"/>
              <path id="Path_1765" d="M23.03,73.31a18.8,18.8,0,0,1-4.08-.451C7.406,70.314-.914,57.692.37,44.735c.833-8.32,5.585-15.242,12.392-18.069h.061l4.706-1.222,2.292-.626,85.12-23.532A16.808,16.808,0,0,1,109.128.75c8.045,0,15.678,5.807,18.986,14.455a23.983,23.983,0,0,1-.5,18.879,17.658,17.658,0,0,1-10.467,9.405L30.671,71.666,26.507,73A18.242,18.242,0,0,1,23.03,73.31ZM13.1,27.537c-6.487,2.7-11,9.321-11.8,17.29C.041,57.333,8.056,69.5,19.157,71.949a17.573,17.573,0,0,0,7.113.13l4.1-1.322L116.852,42.58a16.748,16.748,0,0,0,9.932-8.924,23.072,23.072,0,0,0,.466-18.145C124.08,7.221,116.8,1.652,109.136,1.652a15.7,15.7,0,0,0-3.95.5L17.8,26.322Z" transform="translate(-0.239 -0.75)" fill="#0552ED"/>
            </g>
            <path id="Path_1766" d="M58.533,60.479V71.87L37.652,78.678l-4.164,1.337a18.053,18.053,0,0,1-7.3-.13c-11.338-2.5-19.5-14.868-18.222-27.627.848-8.481,5.654-15.005,12.11-17.687l4.706-1.222,2.292-.626A27.955,27.955,0,0,1,58.318,56.964a26.842,26.842,0,0,1,.214,3.5Z" transform="translate(-2.575 -8.243)" fill="#0552ED"/>
            <path id="Path_3132" d="M28.936,32.52h0A27.956,27.956,0,0,1,56.9,60.483V83.159H.95V60.483A27.963,27.963,0,0,1,28.936,32.52Z" transform="translate(-0.95 -8.247)" fill="#0552ED"/>
          </g>
        </g>
      </g>
    </g>
  </g>
</svg>
